<svg width="1200" height="1200" viewBox="0 0 1200 1200" fill="none" xmlns="http://www.w3.org/2000/svg" role="img" aria-labelledby="title desc">
  <title id="title">OpenDock logo</title>
  <desc id="desc">A simple purple dock-shaped icon with the OpenDock wordmark in dark navy.</desc>
  <defs>
    <linearGradient id="dockGradient" x1="124" y1="486" x2="330" y2="725" gradientUnits="userSpaceOnUse">
      <stop offset="0" stop-color="#6F32FF"/>
      <stop offset="0.55" stop-color="#7A45FF"/>
      <stop offset="1" stop-color="#8C7BFF"/>
    </linearGradient>
  </defs>

  <g id="opendock-logo" transform="translate(0 0)">
    <!-- Dock / open portal icon -->
    <g id="dock-icon" fill="url(#dockGradient)">
      <path fill-rule="evenodd" clip-rule="evenodd" d="M223 486C159.5 486 111 535.8 111 600.8V627.5C111 641.8 113.5 655.4 118.1 668L157.1 627.7C155.6 621.9 154.8 615.8 154.8 609.4V601.4C154.8 561.4 183.8 538.4 224 538.4H232C272.2 538.4 301.2 561.4 301.2 601.4V609.4C301.2 615.8 300.4 621.9 298.9 627.7L337.9 668C342.5 655.4 345 641.8 345 627.5V600.8C345 535.8 296.5 486 233 486H223Z"/>
      <path d="M181.4 649.5C184.2 646.2 188.3 644.3 192.7 644.3H263.3C267.7 644.3 271.8 646.2 274.6 649.5L292.1 670.5C299.6 679.5 293.2 693.2 281.5 693.2H174.5C162.8 693.2 156.4 679.5 163.9 670.5L181.4 649.5Z"/>
      <path d="M160.7 704.1C164.9 699.4 170.9 696.7 177.2 696.7H278.8C285.1 696.7 291.1 699.4 295.3 704.1L322.2 734.1C334.1 747.4 324.7 768.4 306.8 768.4H149.2C131.3 768.4 121.9 747.4 133.8 734.1L160.7 704.1Z" opacity="0.95"/>
    </g>

    <!-- Wordmark -->
    <text x="410" y="666" fill="#020A36" font-family="Inter, Avenir Next, Arial, Helvetica, sans-serif" font-size="120" font-weight="700" letter-spacing="-5">OpenDock</text>
  </g>
</svg>
